<?xml version="1.0" encoding="UTF-8"?>
<svg xmlns="http://www.w3.org/2000/svg" xmlns:xlink="http://www.w3.org/1999/xlink" viewBox="0 0 145.7 160.6">
  <defs>
    <style>
      .cls-1 {
        fill: #231815;
        font-family: TBUDGoStd-Regular, 'TBUDGoStd Regular-83pv-RKSJ-H';
        font-size: 15.6px;
        letter-spacing: .1em;
      }

      .cls-2 {
        fill: #fff;
      }

      .cls-3 {
        isolation: isolate;
      }

      .cls-4 {
        fill: #e4007f;
      }

      .cls-5 {
        fill: url(#_オレンジ_イエロー);
      }

      .cls-6 {
        fill: url(#linear-gradient);
        mix-blend-mode: multiply;
      }
    </style>
    <linearGradient id="_オレンジ_イエロー" data-name="オレンジ、イエロー" x1="-35.1" y1="54.6" x2="-20.8" y2="68.9" gradientTransform="translate(49.3 -16.5) rotate(-45)" gradientUnits="userSpaceOnUse">
      <stop offset="0" stop-color="#fff21f"/>
      <stop offset="0" stop-color="#feee1c"/>
      <stop offset="0" stop-color="#fddc0c"/>
      <stop offset=".2" stop-color="#fcd003"/>
      <stop offset=".3" stop-color="#fccd00"/>
      <stop offset=".7" stop-color="#f1942e"/>
      <stop offset=".9" stop-color="#ea652d"/>
      <stop offset="1" stop-color="#e5352b"/>
    </linearGradient>
    <linearGradient id="linear-gradient" x1="73.2" y1="113.5" x2="73.2" y2="38.2" gradientUnits="userSpaceOnUse">
      <stop offset="0" stop-color="#fff"/>
      <stop offset="1" stop-color="#666"/>
    </linearGradient>
  </defs>
  <g class="cls-3">
    <g id="_レイヤー_1" data-name="レイヤー 1">
      <g>
        <g>
          <path class="cls-5" d="M63.1,44.9h7.7s2.4-7.6,2.4-7.6l2.4,7.6h7.7s-6.3,4.3-6.3,4.3l2.3,7.4-6.1-4.5-6.1,4.5,2.3-7.4-6.3-4.3Z"/>
          <rect class="cls-4" x="30.7" y="31.7" width="85" height="85" rx="12.1" ry="12.1"/>
          <path class="cls-6" d="M73.2,38.2c-20.8,0-37.7,16.9-37.7,37.7s16.9,37.7,37.7,37.7,37.7-16.9,37.7-37.7-16.9-37.7-37.7-37.7ZM73.2,110.5c-15.8,0-28.6-12.8-28.6-28.5s12.8-28.6,28.6-28.6,28.6,12.8,28.6,28.6-12.8,28.5-28.6,28.5Z"/>
          <path class="cls-5" d="M63.1,44.9h7.7s2.4-7.6,2.4-7.6l2.4,7.6h7.7s-6.3,4.3-6.3,4.3l2.3,7.4-6.1-4.5-6.1,4.5,2.3-7.4-6.3-4.3Z"/>
          <g>
            <path class="cls-2" d="M58.6,101.4c-1.3.7-4.4,1.4-8.3,1.4-11.2,0-16.9-7-16.9-16.2s7.9-17.2,17.7-17.2,6.7.8,8,1.4l-1.5,5.8c-1.5-.6-3.6-1.2-6.1-1.2-5.8,0-10.3,3.5-10.3,10.7s3.8,10.6,10.4,10.6,4.7-.5,6.1-1.1l1.1,5.7Z"/>
            <path class="cls-2" d="M63.7,94.8c2,1,5,2,8.1,2s5.1-1.4,5.1-3.5-1.5-3.2-5.4-4.6c-5.4-1.9-8.9-4.8-8.9-9.6s4.6-9.7,12.2-9.7,6.3.8,8.3,1.6l-1.6,5.9c-1.3-.6-3.6-1.5-6.8-1.5s-4.7,1.4-4.7,3.1,1.8,3,6,4.6c5.7,2.1,8.4,5.1,8.4,9.6s-4.2,10.1-13.1,10.1-7.3-1-9.2-2l1.5-6Z"/>
            <path class="cls-2" d="M88.7,70.4c2.4-.4,5.9-.7,9.7-.7s8.2.7,10.5,2.5c1.9,1.5,3,3.8,3,6.8s-2.9,7-5.7,8h0c2.3,1.1,3.5,3.2,4.3,6.2,1,3.6,2,7.9,2.6,9.1h-7.5c-.5-1-1.3-3.6-2.3-7.5-.9-4-2.3-5.1-5.2-5.2h-2.2v12.7h-7.2v-31.9ZM95.9,84.3h2.9c3.6,0,5.8-1.8,5.8-4.7s-2-4.5-5.4-4.5c-1.8,0-2.8.1-3.3.2v8.9Z"/>
          </g>
        </g>
        <text class="cls-1" transform="translate(38.7 141)"><tspan x="0" y="0">P-00150</tspan></text>
      </g>
    </g>
  </g>
</svg>